<svg width="140" height="34" viewBox="0 0 140 34" fill="none" xmlns="http://www.w3.org/2000/svg">
<path d="M13.3545 9.24609C16.3122 8.74686 18.6629 9.25276 20.4658 10.2168C18.8719 9.77352 16.9717 9.74714 14.8057 10.3672C9.55402 12.0599 7.80335 17.2074 8.55371 22.9072C9.86344 30.049 16.8662 32.6083 20.3564 33.1221C19.1965 33.3761 17.991 33.5107 16.7549 33.5107C13.3621 33.5107 10.2047 32.5021 7.56641 30.7686C6.91146 29.8317 6.61768 29.3156 6.40332 28.9395C6.29723 28.7533 6.21067 28.6012 6.10938 28.4492C5.1099 26.8418 4.58669 24.7765 4.47266 22.3506C4.1196 14.8342 8.68789 10.0339 13.3545 9.24609ZM16.7559 0C26.0092 0.000206375 33.5105 7.50151 33.5107 16.7549C33.5107 22.514 30.605 27.5945 26.1797 30.6104C24.9712 31.434 23.6492 32.1034 22.2422 32.5908C21.5667 32.4732 20.818 32.3268 20.291 32.2236C20.0415 32.1748 19.8415 32.136 19.7227 32.1143C16.5354 31.5321 10.8364 29.4783 9.58789 22.7441C9.23516 20.0363 9.48822 17.5436 10.3828 15.5664C11.2642 13.6185 12.7849 12.125 15.1045 11.3711C17.8005 10.6366 20.0348 11.0004 21.6943 11.8916C21.2859 11.8055 20.8636 11.7607 20.4316 11.7607C16.8409 11.7608 13.9299 14.8794 13.9297 18.7266C13.9297 20.2627 14.3936 21.6832 15.1797 22.835C15.1797 22.835 17.4308 27.0869 23.5576 26.707C29.0207 26.3682 31.8582 21.4672 32.1963 19.6572C32.3719 18.7167 32.4639 17.7463 32.4639 16.7549C32.4637 8.07986 25.4309 1.04708 16.7559 1.04688C10.1912 1.04688 4.56683 5.0746 2.21875 10.793C1.42572 11.8261 0.742636 12.9715 0.192383 14.21C1.41866 6.16432 8.36758 0 16.7559 0ZM13.4297 5.93457C18.8191 5.93467 23.4844 9.30382 25.7402 14.209C25.7703 14.2748 25.7476 14.3509 25.6904 14.3896C24.3184 11.2441 20.3383 7.00638 13.1797 8.21484C7.92792 9.10146 3.05079 14.4217 3.42578 22.4014C3.5364 24.7529 4.42165 27.3407 5.39844 29.0752C2.10025 26.0331 0.0262631 21.6831 0 16.8486C1.84932 10.3246 7.3101 5.93457 13.4297 5.93457Z" fill="url(#paint0_linear_2778_1553)"/>
<path d="M13.3545 9.24609C16.3122 8.74686 18.6629 9.25276 20.4658 10.2168C18.8719 9.77352 16.9717 9.74714 14.8057 10.3672C9.55402 12.0599 7.80335 17.2074 8.55371 22.9072C9.86344 30.049 16.8662 32.6083 20.3564 33.1221C19.1965 33.3761 17.991 33.5107 16.7549 33.5107C13.3621 33.5107 10.2047 32.5021 7.56641 30.7686C6.91146 29.8317 6.61768 29.3156 6.40332 28.9395C6.29723 28.7533 6.21067 28.6012 6.10938 28.4492C5.1099 26.8418 4.58669 24.7765 4.47266 22.3506C4.1196 14.8342 8.68789 10.0339 13.3545 9.24609ZM16.7559 0C26.0092 0.000206375 33.5105 7.50151 33.5107 16.7549C33.5107 22.514 30.605 27.5945 26.1797 30.6104C24.9712 31.434 23.6492 32.1034 22.2422 32.5908C21.5667 32.4732 20.818 32.3268 20.291 32.2236C20.0415 32.1748 19.8415 32.136 19.7227 32.1143C16.5354 31.5321 10.8364 29.4783 9.58789 22.7441C9.23516 20.0363 9.48822 17.5436 10.3828 15.5664C11.2642 13.6185 12.7849 12.125 15.1045 11.3711C17.8005 10.6366 20.0348 11.0004 21.6943 11.8916C21.2859 11.8055 20.8636 11.7607 20.4316 11.7607C16.8409 11.7608 13.9299 14.8794 13.9297 18.7266C13.9297 20.2627 14.3936 21.6832 15.1797 22.835C15.1797 22.835 17.4308 27.0869 23.5576 26.707C29.0207 26.3682 31.8582 21.4672 32.1963 19.6572C32.3719 18.7167 32.4639 17.7463 32.4639 16.7549C32.4637 8.07986 25.4309 1.04708 16.7559 1.04688C10.1912 1.04688 4.56683 5.0746 2.21875 10.793C1.42572 11.8261 0.742636 12.9715 0.192383 14.21C1.41866 6.16432 8.36758 0 16.7559 0ZM13.4297 5.93457C18.8191 5.93467 23.4844 9.30382 25.7402 14.209C25.7703 14.2748 25.7476 14.3509 25.6904 14.3896C24.3184 11.2441 20.3383 7.00638 13.1797 8.21484C7.92792 9.10146 3.05079 14.4217 3.42578 22.4014C3.5364 24.7529 4.42165 27.3407 5.39844 29.0752C2.10025 26.0331 0.0262631 21.6831 0 16.8486C1.84932 10.3246 7.3101 5.93457 13.4297 5.93457Z" fill="url(#paint1_linear_2778_1553)"/>
<path d="M43.9363 32.8126H49.7438V23.8825C50.2661 24.4722 50.9076 24.9484 51.6683 25.3113C52.4404 25.6742 53.4055 25.8556 54.5636 25.8556C56.5618 25.8556 58.1854 25.1356 59.4344 23.6954C60.6833 22.2552 61.3077 20.3105 61.3077 17.8611V17.3167C61.3077 14.822 60.7003 12.8885 59.4855 11.5164C58.2706 10.1443 56.6583 9.45825 54.6487 9.45825C53.502 9.45825 52.4915 9.67938 51.6172 10.1216C50.743 10.5639 50.0958 11.1139 49.6757 11.7716H49.6246V9.86649H43.9363V32.8126ZM49.7438 19.9873V15.3776C49.9369 14.8673 50.2718 14.4251 50.7487 14.0509C51.2255 13.6653 51.8159 13.4725 52.5199 13.4725C53.4963 13.4725 54.2229 13.8071 54.6998 14.4761C55.188 15.1338 55.4321 16.0353 55.4321 17.1807V18.0822C55.4321 19.2048 55.188 20.129 54.6998 20.8548C54.2229 21.5692 53.4849 21.9264 52.4858 21.9264C51.8159 21.9264 51.2426 21.7336 50.7657 21.3481C50.2888 20.9512 49.9482 20.4976 49.7438 19.9873Z" fill="#DDDDDD"/>
<path d="M63.3855 25.5154H69.3633V16.3642C69.7948 15.5818 70.3738 14.9581 71.1005 14.4931C71.8271 14.0169 72.5594 13.7787 73.2974 13.7787C73.6721 13.7787 74.0127 13.8014 74.3193 13.8468C74.6258 13.8808 74.8813 13.9432 75.0857 14.0339V9.78144C74.9721 9.73608 74.7621 9.69639 74.4555 9.66237C74.149 9.61701 73.8254 9.59433 73.4848 9.59433C72.5651 9.59433 71.7476 9.82113 71.0323 10.2747C70.3284 10.7283 69.7493 11.318 69.2952 12.0437H69.2782V9.86649H63.3855V25.5154Z" fill="#DDDDDD"/>
<path d="M76.6525 25.5154H82.5792V9.86649H76.6525V25.5154ZM76.363 4.37234C76.363 5.18881 76.6411 5.89188 77.1975 6.48155C77.7538 7.05988 78.5543 7.34905 79.5988 7.34905C80.6434 7.34905 81.4495 7.05988 82.0172 6.48155C82.5962 5.89188 82.8858 5.18314 82.8858 4.35533C82.8858 3.51619 82.6076 2.81879 82.0513 2.26314C81.4949 1.70749 80.6888 1.42966 79.6329 1.42966C78.5883 1.42966 77.7822 1.71316 77.2145 2.28015C76.6468 2.8358 76.363 3.5332 76.363 4.37234Z" fill="#DDDDDD"/>
<path d="M85.4915 25.5154H91.316V15.6838C91.5771 15.1282 91.9121 14.6689 92.3208 14.306C92.7409 13.9318 93.2405 13.7447 93.8195 13.7447C94.4667 13.7447 94.9663 13.9205 95.3182 14.272C95.6816 14.6235 95.8632 15.2416 95.8632 16.1261V25.5154H101.705V15.6838C101.966 15.1168 102.307 14.6519 102.727 14.289C103.147 13.9261 103.646 13.7447 104.225 13.7447C104.873 13.7447 105.372 13.9205 105.724 14.272C106.076 14.6122 106.252 15.2302 106.252 16.1261V25.5154H112.094V15.1395C112.094 13.0983 111.622 11.6412 110.68 10.768C109.738 9.8835 108.483 9.44124 106.916 9.44124C105.679 9.44124 104.56 9.69639 103.561 10.2067C102.562 10.7056 101.762 11.3974 101.16 12.2819H101.126C100.819 11.352 100.251 10.6489 99.4227 10.1727C98.5938 9.69639 97.606 9.45825 96.4593 9.45825C95.2785 9.45825 94.251 9.70206 93.3767 10.1897C92.5025 10.6773 91.7929 11.3407 91.2479 12.1798H91.1968V9.8835H85.4915V25.5154Z" fill="#DDDDDD"/>
<path d="M114.103 21.0249C114.103 22.5671 114.586 23.7408 115.551 24.5459C116.527 25.3397 117.867 25.7366 119.57 25.7366C121.001 25.7366 122.187 25.4928 123.13 25.0051C124.083 24.5062 124.753 23.9505 125.139 23.3382C125.185 23.7578 125.253 24.1547 125.344 24.5289C125.446 24.9031 125.588 25.2319 125.769 25.5154H131.509V25.2773C131.282 24.8464 131.111 24.3418 130.998 23.7634C130.884 23.1851 130.827 22.5671 130.827 21.9094V15.1055C130.827 13.121 130.203 11.6865 128.954 10.802C127.705 9.90617 125.809 9.45825 123.266 9.45825C120.757 9.45825 118.781 9.91751 117.339 10.836C115.908 11.7432 115.193 12.9509 115.193 14.4591V14.8844L120.49 14.9014V14.5442C120.49 13.9545 120.688 13.5009 121.086 13.1834C121.495 12.8545 122.079 12.6901 122.84 12.6901C123.612 12.6901 124.168 12.8772 124.509 13.2514C124.85 13.6256 125.02 14.1643 125.02 14.8673V15.8709H121.018C118.917 15.8709 117.237 16.3415 115.977 17.2827C114.728 18.2126 114.103 19.46 114.103 21.0249ZM119.843 20.5996C119.843 19.9079 120.092 19.4203 120.592 19.1368C121.092 18.8533 121.858 18.7115 122.891 18.7115H125.02V19.9192C125.02 20.5996 124.708 21.212 124.083 21.7563C123.47 22.3006 122.783 22.5728 122.023 22.5728C121.319 22.5728 120.779 22.4083 120.405 22.0795C120.03 21.7506 119.843 21.2573 119.843 20.5996Z" fill="#DDDDDD"/>
<path d="M133.706 25.5154H139.581V0.698242H133.706V25.5154Z" fill="#DDDDDD"/>
<defs>
<linearGradient id="paint0_linear_2778_1553" x1="19.8969" y1="33.1618" x2="19.9429" y2="15.8829" gradientUnits="userSpaceOnUse">
<stop stop-color="#5B09AD"/>
<stop offset="1" stop-color="#BC1870"/>
</linearGradient>
<linearGradient id="paint1_linear_2778_1553" x1="16.7554" y1="0" x2="16.7554" y2="33.5107" gradientUnits="userSpaceOnUse">
<stop stop-color="#FFB700"/>
<stop offset="0.49" stop-color="#FFB700"/>
<stop offset="0.5" stop-color="#CB721E"/>
<stop offset="1" stop-color="#FFB700"/>
</linearGradient>
</defs>
</svg>
