<svg width="48" height="32" viewBox="0 0 48 32" fill="none" xmlns="http://www.w3.org/2000/svg">
<rect width="48" height="32" rx="4" fill="#333333"/>
<path d="M20.5 15C21.3284 15 22 14.3284 22 13.5C22 12.6716 21.3284 12 20.5 12C19.6716 12 19 12.6716 19 13.5C19 14.3284 19.6716 15 20.5 15Z" fill="#757575"/>
<path fill-rule="evenodd" clip-rule="evenodd" d="M17 8C15.3431 8 14 9.34315 14 11V21C14 22.6569 15.3431 24 17 24H31C32.6569 24 34 22.6569 34 21V11C34 9.34315 32.6569 8 31 8H17ZM31 9.5H17C16.1716 9.5 15.5 10.1716 15.5 11V19.4286L17.3711 17.2901C17.9688 16.6071 19.0312 16.6071 19.6289 17.2901L21.206 19.0926C21.6185 19.564 22.3579 19.5445 22.7449 19.0519L26.3205 14.5012C26.9211 13.7368 28.0789 13.7368 28.6795 14.5012L32.5 19.3636V11C32.5 10.1716 31.8284 9.5 31 9.5Z" fill="#757575"/>
<path d="M34 7L14 25" stroke="#333333" stroke-width="4" stroke-linecap="round"/>
<path d="M34 7L14 25" stroke="#757575" stroke-width="1.5" stroke-linecap="round"/>
</svg>
