<svg width="140" height="36" viewBox="0 0 140 36" fill="none" xmlns="http://www.w3.org/2000/svg">
<path d="M13.3545 9.24707C16.3122 8.7478 18.6629 9.25275 20.4658 10.2168C18.8719 9.77352 16.9717 9.74714 14.8057 10.3672C9.55402 12.0599 7.80335 17.2074 8.55371 22.9072C9.86344 30.049 16.8662 32.6083 20.3564 33.1221C19.1965 33.3761 17.991 33.5107 16.7549 33.5107C13.3621 33.5107 10.2047 32.5021 7.56641 30.7686C6.91146 29.8317 6.61768 29.3156 6.40332 28.9395C6.29723 28.7533 6.21067 28.6012 6.10938 28.4492C5.1099 26.8418 4.58669 24.7765 4.47266 22.3506C4.1196 14.8342 8.68789 10.0349 13.3545 9.24707Z" fill="url(#paint0_linear_2951_212)"/>
<path d="M13.3545 9.24707C16.3122 8.7478 18.6629 9.25275 20.4658 10.2168C18.8719 9.77352 16.9717 9.74714 14.8057 10.3672C9.55402 12.0599 7.80335 17.2074 8.55371 22.9072C9.86344 30.049 16.8662 32.6083 20.3564 33.1221C19.1965 33.3761 17.991 33.5107 16.7549 33.5107C13.3621 33.5107 10.2047 32.5021 7.56641 30.7686C6.91146 29.8317 6.61768 29.3156 6.40332 28.9395C6.29723 28.7533 6.21067 28.6012 6.10938 28.4492C5.1099 26.8418 4.58669 24.7765 4.47266 22.3506C4.1196 14.8342 8.68789 10.0349 13.3545 9.24707Z" fill="url(#paint1_linear_2951_212)"/>
<path d="M16.7559 0C26.0092 0.000187209 33.5105 7.5015 33.5107 16.7549C33.5107 22.514 30.605 27.5945 26.1797 30.6104C24.9712 31.434 23.6492 32.1034 22.2422 32.5908C21.5667 32.4732 20.818 32.3268 20.291 32.2236C20.0415 32.1748 19.8415 32.136 19.7227 32.1143C16.5354 31.5321 10.8364 29.4784 9.58789 22.7441C9.23516 20.0363 9.48823 17.5436 10.3828 15.5664C11.2642 13.6185 12.7849 12.125 15.1045 11.3711C17.8004 10.6366 20.0348 11.0004 21.6943 11.8916C21.2859 11.8055 20.8636 11.7607 20.4316 11.7607C16.8409 11.7608 13.9299 14.8794 13.9297 18.7266C13.9297 20.2627 14.3936 21.6832 15.1797 22.835C15.1797 22.835 17.4308 27.0869 23.5576 26.707C29.0207 26.3682 31.8582 21.4672 32.1963 19.6572C32.372 18.7167 32.4639 17.7463 32.4639 16.7549C32.4637 8.07985 25.4309 1.04706 16.7559 1.04688C10.1912 1.04688 4.56683 5.0746 2.21875 10.793C1.42573 11.8261 0.742633 12.9715 0.192383 14.21C1.41866 6.16432 8.36758 0 16.7559 0Z" fill="url(#paint2_linear_2951_212)"/>
<path d="M16.7559 0C26.0092 0.000187209 33.5105 7.5015 33.5107 16.7549C33.5107 22.514 30.605 27.5945 26.1797 30.6104C24.9712 31.434 23.6492 32.1034 22.2422 32.5908C21.5667 32.4732 20.818 32.3268 20.291 32.2236C20.0415 32.1748 19.8415 32.136 19.7227 32.1143C16.5354 31.5321 10.8364 29.4784 9.58789 22.7441C9.23516 20.0363 9.48823 17.5436 10.3828 15.5664C11.2642 13.6185 12.7849 12.125 15.1045 11.3711C17.8004 10.6366 20.0348 11.0004 21.6943 11.8916C21.2859 11.8055 20.8636 11.7607 20.4316 11.7607C16.8409 11.7608 13.9299 14.8794 13.9297 18.7266C13.9297 20.2627 14.3936 21.6832 15.1797 22.835C15.1797 22.835 17.4308 27.0869 23.5576 26.707C29.0207 26.3682 31.8582 21.4672 32.1963 19.6572C32.372 18.7167 32.4639 17.7463 32.4639 16.7549C32.4637 8.07985 25.4309 1.04706 16.7559 1.04688C10.1912 1.04688 4.56683 5.0746 2.21875 10.793C1.42573 11.8261 0.742633 12.9715 0.192383 14.21C1.41866 6.16432 8.36758 0 16.7559 0Z" fill="url(#paint3_linear_2951_212)"/>
<path d="M13.4297 5.93457C18.8191 5.93467 23.4844 9.30382 25.7402 14.209C25.7704 14.2748 25.7476 14.3509 25.6904 14.3896C24.3184 11.2441 20.3382 7.00638 13.1797 8.21484C7.92792 9.10146 3.05079 14.4217 3.42578 22.4014C3.53639 24.7529 4.42165 27.3407 5.39844 29.0752C2.10025 26.0331 0.0262631 21.6831 0 16.8486C1.84932 10.3246 7.3101 5.93457 13.4297 5.93457Z" fill="url(#paint4_linear_2951_212)"/>
<path d="M13.4297 5.93457C18.8191 5.93467 23.4844 9.30382 25.7402 14.209C25.7704 14.2748 25.7476 14.3509 25.6904 14.3896C24.3184 11.2441 20.3382 7.00638 13.1797 8.21484C7.92792 9.10146 3.05079 14.4217 3.42578 22.4014C3.53639 24.7529 4.42165 27.3407 5.39844 29.0752C2.10025 26.0331 0.0262631 21.6831 0 16.8486C1.84932 10.3246 7.3101 5.93457 13.4297 5.93457Z" fill="url(#paint5_linear_2951_212)"/>
<path d="M43.9364 32.8125H49.7439V23.8824C50.2662 24.472 50.9077 24.9483 51.6684 25.3112C52.4404 25.6741 53.4055 25.8555 54.5636 25.8555C56.5619 25.8555 58.1855 25.1354 59.4344 23.6953C60.6833 22.2551 61.3078 20.3103 61.3078 17.8609V17.3166C61.3078 14.8219 60.7004 12.8884 59.4855 11.5163C58.2707 10.1442 56.6584 9.45813 54.6488 9.45813C53.502 9.45813 52.4915 9.67926 51.6173 10.1215C50.743 10.5638 50.0959 11.1137 49.6758 11.7715H49.6247V9.86636H43.9364V32.8125ZM49.7439 19.9872V15.3775C49.9369 14.8672 50.2719 14.425 50.7487 14.0508C51.2256 13.6652 51.816 13.4724 52.5199 13.4724C53.4964 13.4724 54.223 13.8069 54.6999 14.476C55.1881 15.1337 55.4322 16.0352 55.4322 17.1805V18.0821C55.4322 19.2047 55.1881 20.1289 54.6999 20.8546C54.223 21.5691 53.485 21.9263 52.4859 21.9263C51.816 21.9263 51.2426 21.7335 50.7657 21.3479C50.2889 20.951 49.9483 20.4974 49.7439 19.9872Z" fill="#D5D5D5"/>
<path d="M63.3856 25.5153H69.3634V16.3641C69.7948 15.5816 70.3739 14.9579 71.1005 14.493C71.8272 14.0167 72.5595 13.7786 73.2975 13.7786C73.6722 13.7786 74.0128 13.8013 74.3193 13.8466C74.6259 13.8807 74.8814 13.943 75.0857 14.0337V9.78131C74.9722 9.73596 74.7621 9.69627 74.4556 9.66225C74.149 9.61689 73.8254 9.59421 73.4848 9.59421C72.5652 9.59421 71.7477 9.821 71.0324 10.2746C70.3285 10.7282 69.7494 11.3179 69.2953 12.0436H69.2782V9.86636H63.3856V25.5153Z" fill="#D5D5D5"/>
<path d="M76.6526 25.5153H82.5793V9.86636H76.6526V25.5153ZM76.363 4.37222C76.363 5.18869 76.6412 5.89176 77.1975 6.48143C77.7539 7.05976 78.5543 7.34892 79.5989 7.34892C80.6434 7.34892 81.4496 7.05976 82.0173 6.48143C82.5963 5.89176 82.8858 5.18302 82.8858 4.35521C82.8858 3.51606 82.6077 2.81867 82.0513 2.26302C81.495 1.70736 80.6889 1.42954 79.6329 1.42954C78.5884 1.42954 77.7823 1.71303 77.2146 2.28002C76.6469 2.83568 76.363 3.53307 76.363 4.37222Z" fill="#D5D5D5"/>
<path d="M85.4915 25.5153H91.3161V15.6837C91.5772 15.128 91.9121 14.6688 92.3209 14.3059C92.741 13.9317 93.2405 13.7446 93.8196 13.7446C94.4668 13.7446 94.9663 13.9203 95.3183 14.2719C95.6816 14.6234 95.8633 15.2414 95.8633 16.1259V25.5153H101.705V15.6837C101.966 15.1167 102.307 14.6518 102.727 14.2889C103.147 13.926 103.646 13.7446 104.225 13.7446C104.873 13.7446 105.372 13.9203 105.724 14.2719C106.076 14.6121 106.252 15.2301 106.252 16.1259V25.5153H112.094V15.1394C112.094 13.0982 111.622 11.641 110.68 10.7679C109.738 9.88337 108.483 9.44112 106.916 9.44112C105.679 9.44112 104.56 9.69627 103.561 10.2066C102.562 10.7055 101.762 11.3972 101.16 12.2817H101.126C100.819 11.3519 100.252 10.6488 99.4227 10.1725C98.5939 9.69627 97.6061 9.45813 96.4594 9.45813C95.2786 9.45813 94.251 9.70194 93.3768 10.1895C92.5026 10.6772 91.7929 11.3405 91.2479 12.1797H91.1969V9.88337H85.4915V25.5153Z" fill="#D5D5D5"/>
<path d="M114.103 21.0247C114.103 22.567 114.586 23.7406 115.551 24.5458C116.527 25.3395 117.867 25.7364 119.57 25.7364C121.001 25.7364 122.187 25.4926 123.13 25.005C124.083 24.5061 124.753 23.9504 125.139 23.3381C125.185 23.7576 125.253 24.1545 125.344 24.5287C125.446 24.903 125.588 25.2318 125.769 25.5153H131.509V25.2772C131.282 24.8463 131.111 24.3416 130.998 23.7633C130.884 23.185 130.828 22.567 130.828 21.9093V15.1054C130.828 13.1209 130.203 11.6864 128.954 10.8019C127.705 9.90605 125.809 9.45813 123.266 9.45813C120.757 9.45813 118.781 9.91739 117.339 10.8359C115.909 11.7431 115.193 12.9508 115.193 14.459V14.8842L120.49 14.9012V14.544C120.49 13.9544 120.689 13.5008 121.086 13.1833C121.495 12.8544 122.079 12.69 122.84 12.69C123.612 12.69 124.168 12.8771 124.509 13.2513C124.85 13.6255 125.02 14.1642 125.02 14.8672V15.8708H121.018C118.917 15.8708 117.237 16.3414 115.977 17.2826C114.728 18.2125 114.103 19.4599 114.103 21.0247ZM119.843 20.5995C119.843 19.9078 120.092 19.4202 120.592 19.1367C121.092 18.8532 121.858 18.7114 122.891 18.7114H125.02V19.9191C125.02 20.5995 124.708 21.2119 124.083 21.7562C123.47 22.3005 122.783 22.5726 122.023 22.5726C121.319 22.5726 120.779 22.4082 120.405 22.0793C120.03 21.7505 119.843 21.2572 119.843 20.5995Z" fill="#D5D5D5"/>
<path d="M133.706 25.5153H139.581V0.69812H133.706V25.5153Z" fill="#D5D5D5"/>
<g opacity="0.8">
<path d="M108.742 29.1338C110.227 29.1338 111.172 29.8539 111.217 31.2129H110.101C110.02 30.493 109.462 30.1417 108.697 30.1416C108.031 30.1416 107.464 30.5019 107.464 31.0059C107.464 31.5908 107.95 31.7891 109.048 31.9961C110.56 32.2751 111.397 32.8959 111.397 34.0479C111.397 35.4337 110.083 35.9559 108.814 35.9561C107.312 35.9561 106.258 35.2989 106.159 33.832H107.284C107.374 34.5338 107.914 34.9482 108.841 34.9482C109.597 34.9482 110.29 34.6866 110.29 34.1016C110.29 33.5077 109.813 33.2199 108.661 33.0039C107.194 32.7339 106.366 32.1759 106.366 31.042C106.366 29.845 107.446 29.1338 108.742 29.1338Z" fill="#E47C00"/>
<path d="M119.069 33.3994C119.069 34.3624 119.411 34.9482 120.563 34.9482C121.724 34.9481 122.048 34.3443 122.048 33.3994V29.2598H123.146V33.1836C123.146 33.4176 123.137 33.6068 123.11 33.9307C123.029 35.1276 122.345 35.956 120.563 35.9561C118.772 35.9561 118.052 35.1277 117.971 33.9307C117.953 33.6068 117.953 33.4176 117.953 33.1836V29.2598H119.069V33.3994Z" fill="#E47C00"/>
<path fill-rule="evenodd" clip-rule="evenodd" d="M136.487 29.1338C138.557 29.1338 139.61 30.3039 139.61 32.5449C139.61 34.7768 138.557 35.9561 136.487 35.9561C134.417 35.956 133.364 34.7768 133.364 32.5449C133.364 30.304 134.417 29.1339 136.487 29.1338ZM136.487 30.1416C135.263 30.1417 134.517 30.808 134.517 32.5449C134.517 34.2727 135.263 34.9482 136.487 34.9482C137.711 34.9482 138.468 34.2728 138.468 32.5449C138.468 30.8079 137.711 30.1416 136.487 30.1416Z" fill="#E47C00"/>
<path d="M117.163 30.25H115.066V35.8301H113.95V30.25H111.862V29.2598H117.163V30.25Z" fill="#E47C00"/>
<path fill-rule="evenodd" clip-rule="evenodd" d="M126.728 29.2598C127.042 29.2598 127.187 29.2601 127.466 29.2871C128.681 29.4041 130.138 29.9797 130.139 32.4453C130.139 35.0283 128.681 35.6589 127.538 35.7939C127.214 35.8299 127.043 35.8301 126.728 35.8301H124.415V29.2598H126.728ZM125.531 34.8398H126.953C128.294 34.8398 128.996 34.0748 128.996 32.4551C128.996 30.9701 128.33 30.25 126.953 30.25H125.531V34.8398Z" fill="#E47C00"/>
<path d="M132.308 35.8301H131.191V29.2598H132.308V35.8301Z" fill="#E47C00"/>
</g>
<defs>
<linearGradient id="paint0_linear_2951_212" x1="19.8969" y1="33.1618" x2="19.9429" y2="15.8829" gradientUnits="userSpaceOnUse">
<stop stop-color="#5B09AD"/>
<stop offset="1" stop-color="#BC1870"/>
</linearGradient>
<linearGradient id="paint1_linear_2951_212" x1="16.7554" y1="0" x2="16.7554" y2="33.5107" gradientUnits="userSpaceOnUse">
<stop stop-color="#FFB700"/>
<stop offset="0.49" stop-color="#FFB700"/>
<stop offset="0.5" stop-color="#CB721E"/>
<stop offset="1" stop-color="#FFB700"/>
</linearGradient>
<linearGradient id="paint2_linear_2951_212" x1="19.8969" y1="33.1618" x2="19.9429" y2="15.8829" gradientUnits="userSpaceOnUse">
<stop stop-color="#5B09AD"/>
<stop offset="1" stop-color="#BC1870"/>
</linearGradient>
<linearGradient id="paint3_linear_2951_212" x1="16.7554" y1="0" x2="16.7554" y2="33.5107" gradientUnits="userSpaceOnUse">
<stop stop-color="#FFB700"/>
<stop offset="0.49" stop-color="#FFB700"/>
<stop offset="0.5" stop-color="#CB721E"/>
<stop offset="1" stop-color="#FFB700"/>
</linearGradient>
<linearGradient id="paint4_linear_2951_212" x1="19.8969" y1="33.1618" x2="19.9429" y2="15.8829" gradientUnits="userSpaceOnUse">
<stop stop-color="#5B09AD"/>
<stop offset="1" stop-color="#BC1870"/>
</linearGradient>
<linearGradient id="paint5_linear_2951_212" x1="16.7554" y1="0" x2="16.7554" y2="33.5107" gradientUnits="userSpaceOnUse">
<stop stop-color="#FFB700"/>
<stop offset="0.49" stop-color="#FFB700"/>
<stop offset="0.5" stop-color="#CB721E"/>
<stop offset="1" stop-color="#FFB700"/>
</linearGradient>
</defs>
</svg>
