<svg width="16" height="16" viewBox="0 0 16 16" fill="none" xmlns="http://www.w3.org/2000/svg">
<path fill-rule="evenodd" clip-rule="evenodd" d="M8 1C11.866 1 15 4.13401 15 8C15 11.866 11.866 15 8 15C4.13401 15 1 11.866 1 8C1 4.13401 4.13401 1 8 1ZM8 9C6.26578 9 4.76012 10.2157 4 12C5.00739 10.9248 6.42639 10.2529 8 10.2529C9.57361 10.2529 10.9926 10.9248 12 12C11.2399 10.2157 9.73422 9 8 9ZM6 5C5.44772 5 5 5.55964 5 6.25C5 6.94036 5.44772 7.5 6 7.5C6.55228 7.5 7 6.94036 7 6.25C7 5.55964 6.55228 5 6 5ZM10 5C9.44771 5 9 5.55964 9 6.25C9 6.94036 9.44771 7.5 10 7.5C10.5523 7.5 11 6.94036 11 6.25C11 5.55964 10.5523 5 10 5Z" fill="white"/>
</svg>
