<svg width="16" height="16" viewBox="0 0 16 16" fill="none" xmlns="http://www.w3.org/2000/svg">
<path fill-rule="evenodd" clip-rule="evenodd" d="M8 1C11.866 1 15 4.13401 15 8C15 11.866 11.866 15 8 15C4.13401 15 1 11.866 1 8C1 4.13401 4.13401 1 8 1ZM12.5 9C11.3667 10.2544 9.77031 11.0381 8 11.0381C6.22969 11.0381 4.63331 10.2544 3.5 9C4.35514 11.0817 6.049 12.5 8 12.5C9.951 12.5 11.6449 11.0817 12.5 9ZM6 5C5.44772 5 5 5.67157 5 6.5C5 7.32843 5.44772 8 6 8C6.55228 8 7 7.32843 7 6.5C7 5.67157 6.55228 5 6 5ZM10 5C9.44771 5 9 5.67157 9 6.5C9 7.32843 9.44771 8 10 8C10.5523 8 11 7.32843 11 6.5C11 5.67157 10.5523 5 10 5Z" fill="white"/>
</svg>
