<svg width="20" height="20" viewBox="0 0 20 20" fill="none" xmlns="http://www.w3.org/2000/svg">
<path d="M5.77778 12.2059C6.39143 12.2059 6.88889 12.6997 6.88889 13.3088C6.88889 13.918 6.39143 14.4118 5.77778 14.4118C5.16413 14.4118 4.66667 13.918 4.66667 13.3088C4.66667 12.6997 5.16413 12.2059 5.77778 12.2059Z" fill="#D5D5D5"/>
<path d="M9.77778 12.2059C10.3914 12.2059 10.8889 12.6997 10.8889 13.3088C10.8889 13.918 10.3914 14.4118 9.77778 14.4118C9.16413 14.4118 8.66667 13.918 8.66667 13.3088C8.66667 12.6997 9.16413 12.2059 9.77778 12.2059Z" fill="#D5D5D5"/>
<path d="M5.77778 8.67647C6.39143 8.67647 6.88889 9.17027 6.88889 9.77941C6.88889 10.3885 6.39143 10.8824 5.77778 10.8824C5.16413 10.8824 4.66667 10.3885 4.66667 9.77941C4.66667 9.17027 5.16413 8.67647 5.77778 8.67647Z" fill="#D5D5D5"/>
<path d="M9.77778 8.67647C10.3914 8.67647 10.8889 9.17027 10.8889 9.77941C10.8889 10.3885 10.3914 10.8824 9.77778 10.8824C9.16413 10.8824 8.66667 10.3885 8.66667 9.77941C8.66667 9.17027 9.16413 8.67647 9.77778 8.67647Z" fill="#D5D5D5"/>
<path d="M13.7778 8.67647C14.3914 8.67647 14.8889 9.17027 14.8889 9.77941C14.8889 10.3885 14.3914 10.8824 13.7778 10.8824C13.1641 10.8824 12.6667 10.3885 12.6667 9.77941C12.6667 9.17027 13.1641 8.67647 13.7778 8.67647Z" fill="#D5D5D5"/>
<path fill-rule="evenodd" clip-rule="evenodd" d="M15.4705 2.50345C16.8795 2.57431 18 3.73079 18 5.14706V14.8529L17.9965 14.9891C17.9274 16.3427 16.8341 17.428 15.4705 17.4966L15.3333 17.5H4.66667L4.52951 17.4966C3.16592 17.428 2.07256 16.3427 2.00347 14.9891L2 14.8529V5.14706C2 3.73079 3.12049 2.57431 4.52951 2.50345L4.66667 2.5H15.3333L15.4705 2.50345ZM2.88889 14.8529C2.88889 15.8276 3.68483 16.6176 4.66667 16.6176H15.3333C16.3152 16.6176 17.1111 15.8276 17.1111 14.8529V6.91176H2.88889V14.8529ZM4.66667 3.38235C3.68483 3.38235 2.88889 4.17244 2.88889 5.14706V6.02941H17.1111V5.14706C17.1111 4.17244 16.3152 3.38235 15.3333 3.38235H4.66667Z" fill="#D5D5D5"/>
</svg>
