<svg width="28" height="28" viewBox="0 0 28 28" fill="none" xmlns="http://www.w3.org/2000/svg">
<path d="M4.75 17C5.16421 17 5.5 17.3358 5.5 17.75V20C5.5 20.8284 6.17157 21.5 7 21.5H10.25C10.6642 21.5 11 21.8358 11 22.25C11 22.6642 10.6642 23 10.25 23H7C5.39489 23 4.08421 21.7394 4.00391 20.1543L4 20V17.75C4 17.3358 4.33579 17 4.75 17Z" fill="white"/>
<path d="M24 20C24 21.6569 22.6569 23 21 23H17.75C17.3358 23 17 22.6642 17 22.25C17 21.8358 17.3358 21.5 17.75 21.5H21C21.8284 21.5 22.5 20.8284 22.5 20V17.75C22.5 17.3358 22.8358 17 23.25 17C23.6642 17 24 17.3358 24 17.75V20Z" fill="white"/>
<path d="M21 5C22.6569 5 24 6.34315 24 8V10.25C24 10.6642 23.6642 11 23.25 11C22.8358 11 22.5 10.6642 22.5 10.25V8C22.5 7.17157 21.8284 6.5 21 6.5H17.75C17.3358 6.5 17 6.16421 17 5.75C17 5.33579 17.3358 5 17.75 5H21Z" fill="white"/>
<path d="M11 5.75C11 6.16421 10.6642 6.5 10.25 6.5H7C6.17157 6.5 5.5 7.17157 5.5 8V10.25C5.5 10.6642 5.16421 11 4.75 11C4.33579 11 4 10.6642 4 10.25V8C4 6.34315 5.34315 5 7 5H10.25C10.6642 5 11 5.33579 11 5.75Z" fill="white"/>
</svg>
