<svg width="18" height="18" viewBox="0 0 18 18" fill="none" xmlns="http://www.w3.org/2000/svg">
<path d="M5.85 5.40005C6.59558 5.40005 7.2 6.00446 7.2 6.75005C7.2 7.49563 6.59558 8.10005 5.85 8.10005C5.10442 8.10005 4.5 7.49563 4.5 6.75005C4.5 6.00446 5.10442 5.40005 5.85 5.40005Z" fill="white"/>
<path fill-rule="evenodd" clip-rule="evenodd" d="M15.4389 1.80356C16.8655 1.87584 18 3.05545 18 4.50005V13.5C18 14.9446 16.8655 16.1243 15.4389 16.1965L15.3 16.2H2.7L2.56113 16.1965C1.1345 16.1243 0 14.9446 0 13.5V4.50005C0 3.05545 1.1345 1.87584 2.56113 1.80356L2.7 1.80005H15.3L15.4389 1.80356ZM12.7696 7.99897C12.474 7.62275 11.9205 7.59855 11.5928 7.92778L11.5304 7.99897L8.3127 12.0947C7.74665 12.8148 6.66501 12.8429 6.06182 12.1536L4.64238 10.532C4.32863 10.1734 3.77137 10.1734 3.45762 10.532L1.35 12.9393V13.5C1.35 14.2456 1.95442 14.85 2.7 14.85H15.3C16.0456 14.85 16.65 14.2456 16.65 13.5V12.9367L12.7696 7.99897ZM2.7 3.15005C1.95442 3.15005 1.35 3.75446 1.35 4.50005V11.2307L2.61035 9.79106L2.76064 9.63726C3.54013 8.92335 4.77545 8.97484 5.48965 9.79106L6.90908 11.4126C7.0483 11.5717 7.2979 11.5657 7.42852 11.3995L10.6462 7.30376L10.7974 7.13237C11.5933 6.33269 12.9359 6.39003 13.6538 7.30376L16.65 11.1173V4.50005C16.65 3.75446 16.0456 3.15005 15.3 3.15005H2.7Z" fill="white"/>
</svg>
