<svg width="28" height="28" viewBox="0 0 28 28" fill="none" xmlns="http://www.w3.org/2000/svg">
<path d="M9 10.2303L13.5938 6.55525C13.7575 6.4243 14 6.54084 14 6.75047V20.7102C14 20.9198 13.7575 21.0363 13.5938 20.9054L9 17.2303L7 17.2303C6.44772 17.2303 6 16.7826 6 16.2303V11.2303C6 10.678 6.44772 10.2303 7 10.2303H9Z" fill="white"/>
<path d="M18.3988 8.48169C18.1237 8.17642 18.1207 7.72161 18.4235 7.43993C18.7263 7.15824 19.2198 7.15658 19.4992 7.45846C21.0578 9.14233 22 11.334 22 13.7303C22 16.1267 21.0578 18.3183 19.4992 20.0022C19.2198 20.304 18.7263 20.3024 18.4235 20.0207C18.1207 19.739 18.1237 19.2842 18.3988 18.9789C19.6786 17.5589 20.4492 15.7283 20.4492 13.7303C20.4492 11.7323 19.6786 9.90173 18.3988 8.48169Z" fill="white"/>
<path d="M16.1915 10.5329C15.9324 10.2157 15.9275 9.76152 16.2303 9.47983C16.5331 9.19815 17.0278 9.19597 17.2967 9.50601C18.2985 10.6611 18.8983 12.1304 18.8983 13.7301C18.8983 15.3298 18.2985 16.7991 17.2967 17.9542C17.0278 18.2642 16.5331 18.262 16.2303 17.9804C15.9275 17.6987 15.9324 17.2445 16.1915 16.9273C16.9169 16.0393 17.3475 14.9315 17.3475 13.7301C17.3475 12.5287 16.9169 11.4209 16.1915 10.5329Z" fill="white"/>
</svg>
