<svg width="18" height="18" viewBox="0 0 18 18" fill="none" xmlns="http://www.w3.org/2000/svg">
<path d="M6.0751 1.34961C6.44789 1.34961 6.7501 1.65182 6.7501 2.02461C6.7501 2.3974 6.44789 2.69961 6.0751 2.69961H3.1501C2.90157 2.69961 2.7001 2.90108 2.7001 3.14961V14.8496C2.7001 15.0981 2.90157 15.2996 3.1501 15.2996H14.8501C15.0986 15.2996 15.3001 15.0981 15.3001 14.8496V11.9246C15.3001 11.5518 15.6023 11.2496 15.9751 11.2496C16.3479 11.2496 16.6501 11.5518 16.6501 11.9246V14.8496C16.6501 15.8437 15.8442 16.6496 14.8501 16.6496H3.1501C2.15599 16.6496 1.3501 15.8437 1.3501 14.8496V3.14961C1.3501 2.1555 2.15599 1.34961 3.1501 1.34961H6.0751Z" fill="white"/>
<path d="M14.8501 1.34961C15.844 1.34972 16.6499 2.15574 16.6501 3.14961V7.87461C16.6501 8.24733 16.3478 8.5495 15.9751 8.54961C15.6024 8.54955 15.3001 8.24736 15.3001 7.87461V3.48447L8.18184 10.6019C7.91823 10.8654 7.49094 10.8654 7.22734 10.6019C6.96394 10.3382 6.96384 9.9109 7.22734 9.64736L14.176 2.69961H10.1251C9.75236 2.69955 9.4501 2.39736 9.4501 2.02461C9.4503 1.65203 9.75248 1.34967 10.1251 1.34961H14.8501Z" fill="white"/>
</svg>
