<svg width="20" height="18" viewBox="0 0 20 18" fill="none" xmlns="http://www.w3.org/2000/svg">
<path d="M18.8353 0.177627C19.1216 -0.0780251 19.5631 -0.0549538 19.8209 0.229009C20.0786 0.513168 20.0554 0.951272 19.7691 1.20706L1.16466 17.8223C0.87828 18.078 0.436791 18.055 0.179025 17.7709C-0.0785497 17.4867 -0.0554876 17.0486 0.230805 16.7928L18.8353 0.177627Z" fill="#757575"/>
<path d="M19.1005 3.35518C19.2292 3.67362 19.3022 4.02052 19.3022 4.38461V13.6153C19.3022 15.1447 18.0528 16.3845 16.5115 16.3845H4.5122L14.3422 7.60453C14.3455 7.60862 14.3498 7.61212 14.3531 7.61625L17.9069 12.1045V4.42157L19.1005 3.35518Z" fill="#757575"/>
<path d="M13.9371 3.00001H3.4884C2.71786 3.00007 2.09311 3.61999 2.09307 4.38461V12.1649L3.8336 10.1907C4.38228 9.56854 5.35152 9.56132 5.91116 10.1673L0.898495 14.6438C0.770083 14.3257 0.697734 13.9789 0.697734 13.6153V4.38461C0.697776 2.8553 1.94724 1.61547 3.4884 1.61541H15.4877L13.9371 3.00001Z" fill="#757575"/>
<path d="M6.74419 5.30768C7.51478 5.30768 8.13948 5.92762 8.13952 6.69228C8.13952 7.45697 7.51481 8.07688 6.74419 8.07688C5.97362 8.07682 5.34885 7.45693 5.34885 6.69228C5.34889 5.92766 5.97364 5.30774 6.74419 5.30768Z" fill="#757575"/>
</svg>
