<svg width="32" height="32" viewBox="0 0 32 32" fill="none" xmlns="http://www.w3.org/2000/svg">
<g filter="url(#filter0_d_3650_2)">
<path d="M11.9375 9C12.4553 9 12.875 9.44772 12.875 10V22C12.875 22.5523 12.4553 23 11.9375 23C11.4197 23 11 22.5523 11 22V10C11 9.44772 11.4197 9 11.9375 9Z" fill="white"/>
<path d="M20.0625 9C20.5803 9 21 9.44772 21 10V22C21 22.5523 20.5803 23 20.0625 23C19.5447 23 19.125 22.5523 19.125 22V10C19.125 9.44772 19.5447 9 20.0625 9Z" fill="white"/>
</g>
<defs>
<filter id="filter0_d_3650_2" x="8" y="6" width="16" height="20" filterUnits="userSpaceOnUse" color-interpolation-filters="sRGB">
<feFlood flood-opacity="0" result="BackgroundImageFix"/>
<feColorMatrix in="SourceAlpha" type="matrix" values="0 0 0 0 0 0 0 0 0 0 0 0 0 0 0 0 0 0 127 0" result="hardAlpha"/>
<feOffset/>
<feGaussianBlur stdDeviation="1.5"/>
<feComposite in2="hardAlpha" operator="out"/>
<feColorMatrix type="matrix" values="0 0 0 0 0 0 0 0 0 0 0 0 0 0 0 0 0 0 1 0"/>
<feBlend mode="normal" in2="BackgroundImageFix" result="effect1_dropShadow_3650_2"/>
<feBlend mode="normal" in="SourceGraphic" in2="effect1_dropShadow_3650_2" result="shape"/>
</filter>
</defs>
</svg>
