<svg width="61" height="11" viewBox="0 0 61 11" fill="none" xmlns="http://www.w3.org/2000/svg">
<path d="M41.2857 2.94737C41.049 2.94737 40.8571 3.15944 40.8571 3.42105V9.57895C40.8571 9.84056 41.049 10.0526 41.2857 10.0526H48.5714V2.94737H41.2857Z" fill="white"/>
<path fill-rule="evenodd" clip-rule="evenodd" d="M57.9979 2H41.2878C40.5765 2 40 2.63281 40 3.42105V9.57895C40 10.3637 40.5771 11 41.2878 11H57.9979C58.7092 11 59.2857 10.3672 59.2857 9.57895V3.42105C59.2857 2.63628 58.7086 2 57.9979 2ZM40.4286 3.42105C40.4286 2.89602 40.8119 2.47368 41.2878 2.47368H57.9979C58.4723 2.47368 58.8571 2.89833 58.8571 3.42105V9.57895C58.8571 10.104 58.4738 10.5263 57.9979 10.5263H41.2878C40.8134 10.5263 40.4286 10.1017 40.4286 9.57895V3.42105Z" fill="white"/>
<path d="M59.7143 8.1579C60.4412 8.0418 61 7.34376 61 6.5C61 5.65624 60.4412 4.9582 59.7143 4.84211V8.1579Z" fill="white"/>
<path d="M0 8.25H2.90909V11H0V8.25Z" fill="white"/>
<path d="M4.36364 5.5H7.27273V11H4.36364V5.5Z" fill="white"/>
<path d="M8.72727 2.75H11.6364V11H8.72727V2.75Z" fill="white"/>
<path d="M13.0909 0H16V11H13.0909V0Z" fill="white"/>
<path fill-rule="evenodd" clip-rule="evenodd" d="M28.4954 2.68985C30.5968 2.68985 32.512 3.48382 33.9804 4.78573L35 3.63122C33.2608 2.08273 30.9894 1 28.4954 1C26.0052 1 23.737 2.07945 22 3.623L23.0174 4.77916C24.4848 3.48108 26.3967 2.68985 28.4954 2.68985Z" fill="white"/>
<path fill-rule="evenodd" clip-rule="evenodd" d="M28.4955 6.02248C29.7549 6.02248 30.9055 6.49152 31.793 7.26412L32.8716 6.04221C31.6977 5.00879 30.1707 4.33372 28.4955 4.33372C26.8234 4.33372 25.2976 5.00714 24.1248 6.03728L25.2017 7.26083C26.0887 6.48988 27.2376 6.02248 28.4955 6.02248Z" fill="white"/>
<path fill-rule="evenodd" clip-rule="evenodd" d="M30.7136 8.48604C30.1131 7.97481 29.3399 7.62084 28.4946 7.62084C27.651 7.62084 26.8789 7.97426 26.2784 8.4833L28.4946 11L30.7136 8.48604Z" fill="white"/>
</svg>
