<svg width="28" height="28" viewBox="0 0 28 28" fill="none" xmlns="http://www.w3.org/2000/svg">
<path d="M7.53033 6.46967C7.23744 6.17678 6.76256 6.17678 6.46967 6.46967C6.17678 6.76256 6.17678 7.23744 6.46967 7.53033L20.4697 21.5303C20.7626 21.8232 21.2374 21.8232 21.5303 21.5303C21.8232 21.2374 21.8232 20.7626 21.5303 20.4697L7.53033 6.46967Z" fill="white"/>
<path d="M11.1269 8.29832L14 11.1714V6.52C14 6.31037 13.7575 6.19383 13.5938 6.32478L11.1269 8.29832Z" fill="white"/>
<path d="M20.8108 17.9822L19.6793 16.8507C20.174 15.8282 20.4492 14.6939 20.4492 13.4998C20.4492 11.5018 19.6786 9.67126 18.3988 8.25122C18.1237 7.94595 18.1207 7.49114 18.4235 7.20946C18.7263 6.92777 19.2198 6.92611 19.4992 7.22799C21.0578 8.91186 22 11.1035 22 13.4998C22 15.1185 21.5701 16.6437 20.8108 17.9822Z" fill="white"/>
<path d="M17.2596 14.431L18.5099 15.6813C18.7617 14.9971 18.8983 14.2632 18.8983 13.4996C18.8983 11.9 18.2985 10.4306 17.2967 9.27554C17.0278 8.9655 16.5331 8.96768 16.2303 9.24937C15.9275 9.53105 15.9324 9.98521 16.1915 10.3024C16.9169 11.1904 17.3475 12.2983 17.3475 13.4996C17.3475 13.8174 17.3174 14.1287 17.2596 14.431Z" fill="white"/>
<path d="M7 9.99984H7.17157L14 16.8283V20.4797C14 20.6893 13.7575 20.8059 13.5938 20.6749L9 16.9998L7 16.9998C6.44772 16.9998 6 16.5521 6 15.9998V10.9998C6 10.4476 6.44772 9.99984 7 9.99984Z" fill="white"/>
</svg>
