<svg width="20" height="21" viewBox="0 0 20 21" fill="none" xmlns="http://www.w3.org/2000/svg">
<path fill-rule="evenodd" clip-rule="evenodd" d="M14.8 5.45215C14.8 8.0755 12.6734 10.2021 10.05 10.2021C7.42665 10.2021 5.3 8.0755 5.3 5.45215C5.3 2.8288 7.42665 0.702148 10.05 0.702148C12.6734 0.702148 14.8 2.8288 14.8 5.45215ZM13.6125 5.45215C13.6125 7.41966 12.0175 9.01465 10.05 9.01465C8.08249 9.01465 6.4875 7.41966 6.4875 5.45215C6.4875 3.48463 8.08249 1.88965 10.05 1.88965C12.0175 1.88965 13.6125 3.48463 13.6125 5.45215Z" fill="#AAAAAA"/>
<path fill-rule="evenodd" clip-rule="evenodd" d="M1.5 15.9021C1.5 13.8035 3.20132 12.1021 5.3 12.1021H14.8C16.8987 12.1021 18.6 13.8035 18.6 15.9021C18.6 18.0008 16.8987 19.7021 14.8 19.7021H5.3C3.20132 19.7021 1.5 18.0008 1.5 15.9021ZM2.6875 15.9021C2.6875 14.4593 3.85716 13.2896 5.3 13.2896H14.8C16.2428 13.2896 17.4125 14.4593 17.4125 15.9021C17.4125 17.345 16.2428 18.5146 14.8 18.5146H5.3C3.85716 18.5146 2.6875 17.345 2.6875 15.9021Z" fill="#AAAAAA"/>
</svg>
