<svg width="20" height="21" viewBox="0 0 20 21" fill="none" xmlns="http://www.w3.org/2000/svg">
<path d="M1.5 3.77907C1.5 3.46045 1.75371 3.20215 2.06667 3.20215H17.9333C18.2463 3.20215 18.5 3.46045 18.5 3.77907C18.5 4.0977 18.2463 4.35599 17.9333 4.35599H2.06667C1.75371 4.35599 1.5 4.0977 1.5 3.77907Z" fill="#AAAAAA"/>
<path d="M1.5 8.39446C1.5 8.07583 1.75371 7.81753 2.06667 7.81753H17.9333C18.2463 7.81753 18.5 8.07583 18.5 8.39446C18.5 8.71308 18.2463 8.97138 17.9333 8.97138H2.06667C1.75371 8.97138 1.5 8.71308 1.5 8.39446Z" fill="#AAAAAA"/>
<path d="M1.5 13.0098C1.5 12.6912 1.75371 12.4329 2.06667 12.4329H17.9333C18.2463 12.4329 18.5 12.6912 18.5 13.0098C18.5 13.3285 18.2463 13.5868 17.9333 13.5868H2.06667C1.75371 13.5868 1.5 13.3285 1.5 13.0098Z" fill="#AAAAAA"/>
<path d="M1.5 17.6252C1.5 17.3066 1.75371 17.0483 2.06667 17.0483H11.8889C12.2018 17.0483 12.4556 17.3066 12.4556 17.6252C12.4556 17.9439 12.2018 18.2021 11.8889 18.2021H2.06667C1.75371 18.2021 1.5 17.9439 1.5 17.6252Z" fill="#AAAAAA"/>
</svg>
