<svg width="20" height="21" viewBox="0 0 20 21" fill="none" xmlns="http://www.w3.org/2000/svg">
<path fill-rule="evenodd" clip-rule="evenodd" d="M9.62551 2.0765C9.84723 1.9107 10.1528 1.9107 10.3745 2.0765L19.4908 8.89385C19.7705 9.10299 19.8353 9.51109 19.6289 9.80296C19.4254 10.0906 19.0395 10.1508 18.7644 9.94501L17.2962 8.84711L16.4308 18.0012V18.0108C16.4308 18.8068 15.7807 19.4521 14.9787 19.4521H5.02138C4.2194 19.4521 3.56926 18.8068 3.56926 18.0108V18.0012L2.70386 8.84705L1.23565 9.94501C0.960493 10.1508 0.574572 10.0906 0.371136 9.80296C0.164696 9.51109 0.229529 9.10299 0.509202 8.89385L9.62551 2.0765ZM10.6242 3.85761C10.2546 3.58127 9.74538 3.58127 9.37585 3.85761L3.97462 7.89675L4.81397 17.1378C4.81925 17.7018 5.28159 18.1575 5.85115 18.1575H14.1489C14.7185 18.1575 15.1808 17.7019 15.1861 17.1378L16.0255 7.89682L10.6242 3.85761Z" fill="white"/>
</svg>
