<svg width="20" height="21" viewBox="0 0 20 21" fill="none" xmlns="http://www.w3.org/2000/svg">
<path d="M6.85 6.70215C7.59558 6.70215 8.2 7.28977 8.2 8.01465C8.2 8.73952 7.59558 9.32715 6.85 9.32715C6.10442 9.32715 5.5 8.73952 5.5 8.01465C5.5 7.28977 6.10442 6.70215 6.85 6.70215Z" fill="#AAAAAA"/>
<path fill-rule="evenodd" clip-rule="evenodd" d="M16.4389 3.20557C17.8655 3.27584 19 4.42268 19 5.82715V15.5771C19 16.9816 17.8655 18.1285 16.4389 18.1987L16.3 18.2021H3.7L3.56113 18.1987C2.1345 18.1285 1 16.9816 1 15.5771V5.82715C1 4.42268 2.1345 3.27584 3.56113 3.20557L3.7 3.20215H16.3L16.4389 3.20557ZM13.7696 9.22888C13.474 8.86311 12.9205 8.83958 12.5928 9.15967L12.5304 9.22888L9.3127 13.2108C8.74665 13.9109 7.66501 13.9383 7.06182 13.2681L5.64238 11.6915C5.32863 11.3429 4.77136 11.3429 4.45762 11.6915L2.35 14.032V15.5771C2.35 16.302 2.95442 16.8896 3.7 16.8896H16.3C17.0456 16.8896 17.65 16.302 17.65 15.5771V14.0294L13.7696 9.22888ZM3.7 4.51465C2.95442 4.51465 2.35 5.10227 2.35 5.82715V12.3708L3.61035 10.9712L3.76064 10.8217C4.54013 10.1276 5.77545 10.1776 6.48965 10.9712L7.90908 12.5477C8.0483 12.7024 8.2979 12.6965 8.42852 12.5349L11.6462 8.55298L11.7974 8.38635C12.5933 7.60888 13.9359 7.66463 14.6538 8.55298L17.65 12.2606V5.82715C17.65 5.10227 17.0456 4.51465 16.3 4.51465H3.7Z" fill="#AAAAAA"/>
</svg>
