<svg width="20" height="21" viewBox="0 0 20 21" fill="none" xmlns="http://www.w3.org/2000/svg">
<rect x="1.125" y="3.82715" width="17.75" height="13.75" rx="2.375" stroke="#AAAAAA" stroke-width="1.25"/>
<path d="M4 7.27907C4 6.96045 4.25371 6.70215 4.56667 6.70215H15.4333C15.7463 6.70215 16 6.96045 16 7.27907C16 7.5977 15.7463 7.85599 15.4333 7.85599H4.56667C4.25371 7.85599 4 7.5977 4 7.27907Z" fill="#AAAAAA"/>
<path d="M7 10.8945C7 10.5758 7.25371 10.3175 7.56667 10.3175H15.4333C15.7463 10.3175 16 10.5758 16 10.8945C16 11.2131 15.7463 11.4714 15.4333 11.4714H7.56667C7.25371 11.4714 7 11.2131 7 10.8945Z" fill="#AAAAAA"/>
<path d="M7 14.5098C7 14.1912 7.25371 13.9329 7.56667 13.9329H15.4333C15.7463 13.9329 16 14.1912 16 14.5098C16 14.8285 15.7463 15.0868 15.4333 15.0868H7.56667C7.25371 15.0868 7 14.8285 7 14.5098Z" fill="#AAAAAA"/>
</svg>
