<svg width="20" height="21" viewBox="0 0 20 21" fill="none" xmlns="http://www.w3.org/2000/svg">
<path fill-rule="evenodd" clip-rule="evenodd" d="M6.72887 10.7021C6.72887 8.91814 8.19359 7.47191 10.0002 7.47191C11.8067 7.47191 13.2715 8.91814 13.2715 10.7021C13.2715 12.4862 11.8067 13.9324 10.0002 13.9324C8.19359 13.9324 6.72887 12.4862 6.72887 10.7021ZM10.0002 8.71659C8.88972 8.71659 7.98937 9.60559 7.98937 10.7021C7.98937 11.7987 8.88972 12.6877 10.0002 12.6877C11.1106 12.6877 12.011 11.7987 12.011 10.7021C12.011 9.60559 11.1106 8.71659 10.0002 8.71659Z" fill="#AAAAAA"/>
<path fill-rule="evenodd" clip-rule="evenodd" d="M7.34392 1.84266C7.41786 1.33168 7.86105 0.952148 8.38378 0.952148H11.6166C12.1393 0.952148 12.5825 1.33169 12.6564 1.84266L12.9974 4.1994L13.0993 4.24718C13.4532 4.41313 13.7912 4.60657 14.1105 4.82466L14.2034 4.88813L16.4418 4.00089C16.927 3.8086 17.4815 3.99782 17.7428 4.44485L19.3592 7.20936C19.6206 7.6564 19.5093 8.22519 19.0981 8.5439L17.2006 10.0145L17.2097 10.1255C17.2251 10.3157 17.233 10.508 17.233 10.7021C17.233 10.8963 17.2251 11.0885 17.2097 11.2787L17.2006 11.3897L19.0981 12.8603C19.5093 13.179 19.6206 13.7478 19.3592 14.1949L17.7428 16.9594C17.4815 17.4064 16.927 17.5956 16.4419 17.4033L14.2034 16.5162L14.1105 16.5796C13.7912 16.7978 13.4532 16.9912 13.0993 17.1571L12.9974 17.2049L12.6564 19.5616C12.5825 20.0726 12.1393 20.4521 11.6166 20.4521H8.38378C7.86105 20.4521 7.41786 20.0726 7.34392 19.5616L7.00289 17.2049L6.90098 17.1571C6.54703 16.9912 6.20888 16.7977 5.88953 16.5796L5.79661 16.5161L3.55816 17.4033C3.07304 17.5956 2.51855 17.4064 2.25718 16.9594L0.640802 14.1948C0.379435 13.7478 0.490716 13.1791 0.901902 12.8603L2.79945 11.3895L2.79049 11.2786C2.77511 11.0883 2.76729 10.8961 2.76729 10.7021C2.76729 10.5082 2.77511 10.316 2.79049 10.1257L2.79945 10.0148L0.901882 8.54388C0.490709 8.22516 0.379435 7.65639 0.640798 7.20938L2.25719 4.44484C2.51855 3.99782 3.07302 3.8086 3.55813 4.00086L5.79691 4.88813L5.88983 4.82465C6.20909 4.60654 6.5471 4.41311 6.90099 4.24717L7.00289 4.19939L7.34392 1.84266ZM11.4344 2.19683H8.56597L8.16579 4.96234C8.15511 5.03612 8.10517 5.09857 8.03497 5.12595L7.80788 5.21449C7.25565 5.4298 6.74333 5.72423 6.28562 6.08387L6.09435 6.23416C6.03523 6.28061 5.9554 6.29214 5.88529 6.26435L3.25771 5.22299L1.82352 7.67591L4.04941 9.4013C4.10871 9.44726 4.13852 9.52108 4.12753 9.59472L4.09199 9.8329C4.04972 10.1162 4.02779 10.4064 4.02779 10.7021C4.02779 10.9979 4.04972 11.2881 4.09199 11.5714L4.12753 11.8096C4.13852 11.8832 4.10871 11.957 4.04941 12.003L1.82353 13.7283L3.2577 16.1812L5.88495 15.1399C5.95507 15.1121 6.0349 15.1236 6.09402 15.1701L6.2853 15.3203C6.74296 15.68 7.25559 15.9745 7.80788 16.1898L8.03497 16.2783C8.10517 16.3057 8.15511 16.3682 8.16579 16.442L8.56597 19.2075H11.4344L11.8345 16.442C11.8452 16.3682 11.8952 16.3057 11.9654 16.2783L12.1925 16.1898C12.7447 15.9745 13.257 15.6801 13.7147 15.3204L13.906 15.1701C13.9651 15.1237 14.0449 15.1122 14.1151 15.1399L16.7423 16.1812L18.1765 13.7283L15.9506 12.0032C15.8913 11.9572 15.8615 11.8834 15.8725 11.8098L15.908 11.5716C15.9504 11.2878 15.9725 10.9976 15.9725 10.7021C15.9725 10.4067 15.9504 10.1165 15.908 9.83261L15.8725 9.59444C15.8615 9.52079 15.8913 9.44698 15.9506 9.40102L18.1765 7.67588L16.7423 5.22301L14.1151 6.26435C14.045 6.29213 13.9652 6.28061 13.906 6.23417L13.7148 6.08391C13.257 5.72429 12.7446 5.42979 12.1925 5.21449L11.9654 5.12595C11.8952 5.09857 11.8452 5.03612 11.8345 4.96234L11.4344 2.19683Z" fill="#AAAAAA"/>
</svg>
