<svg width="218" height="56" viewBox="0 0 218 56" fill="none" xmlns="http://www.w3.org/2000/svg">
<path d="M20.7979 14.4004C25.4048 13.6227 29.0659 14.4104 31.874 15.9121C29.3913 15.2216 26.4315 15.1797 23.0576 16.1455C14.8786 18.7819 12.1517 26.7987 13.3203 35.6758C15.3599 46.7992 26.267 50.7858 31.7031 51.5859C29.8966 51.9816 28.02 52.1904 26.0947 52.1904C20.8104 52.1904 15.8925 50.6199 11.7832 47.9199C10.7631 46.4609 10.3055 45.6572 9.97168 45.0713C9.8064 44.7812 9.6715 44.5444 9.51367 44.3076C7.95702 41.8041 7.14245 38.5878 6.96484 34.8096C6.41482 23.1029 13.5297 15.6274 20.7979 14.4004ZM26.0967 0C40.5088 0.000168838 52.1924 11.6835 52.1924 26.0957C52.1924 35.0654 47.6666 42.9777 40.7744 47.6748C38.8921 48.9577 36.833 50.0006 34.6416 50.7598C33.5895 50.5766 32.4233 50.3482 31.6025 50.1875C31.2138 50.1114 30.9019 50.0504 30.7168 50.0166C25.7527 49.1097 16.878 45.911 14.9336 35.4229C14.3842 31.2056 14.7776 27.3236 16.1709 24.2441C17.5436 21.2103 19.9125 18.8841 23.5254 17.71C27.7245 16.566 31.2044 17.1333 33.7891 18.5215C33.1529 18.3873 32.4951 18.3164 31.8223 18.3164C26.2294 18.3164 21.6953 23.1747 21.6953 29.167C21.6954 31.5596 22.4181 33.7716 23.6426 35.5654C23.6604 35.599 27.1725 42.1849 36.6904 41.5947C45.1989 41.067 49.6179 33.4353 50.1445 30.6162C50.4182 29.1512 50.5615 27.6401 50.5615 26.0957C50.5615 12.5843 39.6081 1.63103 26.0967 1.63086C15.8726 1.63086 7.1132 7.90263 3.45605 16.8086C2.22086 18.4177 1.15686 20.2019 0.299805 22.1309C2.20983 9.60022 13.0323 0 26.0967 0ZM20.916 9.24316C29.3099 9.2432 36.5764 14.4894 40.0898 22.1289C40.137 22.2315 40.1009 22.3508 40.0117 22.4111C37.8748 17.5121 31.6757 10.9116 20.5264 12.7939C12.347 14.1749 4.7519 22.4607 5.33594 34.8887C5.50814 38.551 6.88592 42.5818 8.40723 45.2832C3.27054 40.5453 0.0409032 33.7706 0 26.2412C2.88017 16.0801 11.3848 9.24316 20.916 9.24316Z" fill="#DC7402"/>
<path d="M68.4299 51.1044H77.4749V37.1961C78.2884 38.1144 79.2875 38.8562 80.4722 39.4214C81.6747 39.9865 83.1778 40.2691 84.9815 40.2691C88.0937 40.2691 90.6225 39.1476 92.5676 36.9046C94.5128 34.6617 95.4854 31.6327 95.4854 27.8179V26.9701C95.4854 23.0846 94.5393 20.0734 92.6472 17.9363C90.7551 15.7993 88.2441 14.7308 85.1141 14.7308C83.3281 14.7308 81.7543 15.0752 80.3927 15.764C79.0311 16.4528 78.0231 17.3094 77.3688 18.3337H77.2893V15.3666H68.4299V51.1044ZM77.4749 31.1294V23.95C77.7755 23.1553 78.2972 22.4665 79.0399 21.8837C79.7826 21.2832 80.7021 20.9829 81.7985 20.9829C83.3193 20.9829 84.451 21.5039 85.1937 22.546C85.9541 23.5703 86.3343 24.9744 86.3343 26.7582V28.1623C86.3343 29.9107 85.9541 31.3501 85.1937 32.4805C84.451 33.5931 83.3016 34.1495 81.7454 34.1495C80.7021 34.1495 79.8091 33.8492 79.0664 33.2487C78.3237 32.6306 77.7932 31.9241 77.4749 31.1294Z" fill="#111111"/>
<path d="M98.7214 39.7393H108.032V25.4866C108.704 24.2679 109.605 23.2966 110.737 22.5724C111.869 21.8307 113.009 21.4598 114.159 21.4598C114.742 21.4598 115.273 21.4951 115.75 21.5657C116.228 21.6187 116.626 21.7159 116.944 21.8572V15.2342C116.767 15.1635 116.44 15.1017 115.963 15.0487C115.485 14.9781 114.981 14.9427 114.451 14.9427C113.018 14.9427 111.745 15.296 110.631 16.0024C109.535 16.7089 108.633 17.6273 107.926 18.7576H107.899V15.3666H98.7214V39.7393Z" fill="#111111"/>
<path d="M119.384 39.7393H128.615V15.3666H119.384V39.7393ZM118.933 6.80968C118.933 8.0813 119.367 9.17631 120.233 10.0947C121.1 10.9954 122.346 11.4458 123.973 11.4458C125.6 11.4458 126.855 10.9954 127.74 10.0947C128.642 9.17631 129.092 8.07247 129.092 6.78319C129.092 5.47625 128.659 4.39008 127.793 3.52467C126.926 2.65926 125.671 2.22656 124.026 2.22656C122.399 2.22656 121.144 2.66809 120.26 3.55116C119.375 4.41657 118.933 5.50274 118.933 6.80968Z" fill="#111111"/>
<path d="M133.151 39.7393H142.222V24.4269C142.629 23.5615 143.151 22.8462 143.787 22.281C144.442 21.6982 145.22 21.4068 146.121 21.4068C147.129 21.4068 147.907 21.6805 148.456 22.2281C149.021 22.7756 149.304 23.7381 149.304 25.1157V39.7393H158.402V24.4269C158.809 23.5438 159.34 22.8197 159.994 22.2545C160.648 21.6894 161.426 21.4068 162.328 21.4068C163.336 21.4068 164.114 21.6805 164.662 22.2281C165.211 22.7579 165.485 23.7204 165.485 25.1157V39.7393H174.583V23.5791C174.583 20.4001 173.849 18.1306 172.381 16.7707C170.913 15.3931 168.959 14.7043 166.519 14.7043C164.592 14.7043 162.85 15.1017 161.294 15.8965C159.738 16.6736 158.491 17.7509 157.554 19.1285H157.501C157.023 17.6803 156.139 16.5852 154.848 15.8435C153.557 15.1017 152.019 14.7308 150.233 14.7308C148.394 14.7308 146.793 15.1105 145.432 15.87C144.07 16.6294 142.965 17.6626 142.116 18.9695H142.037V15.3931H133.151V39.7393Z" fill="#111111"/>
<path d="M177.713 32.7454C177.713 35.1473 178.464 36.9753 179.967 38.2292C181.488 39.4655 183.575 40.0837 186.227 40.0837C188.455 40.0837 190.303 39.704 191.771 38.9445C193.256 38.1674 194.3 37.302 194.901 36.3483C194.972 37.0018 195.078 37.6199 195.219 38.2028C195.378 38.7856 195.599 39.2978 195.882 39.7393H204.821V39.3684C204.467 38.6973 204.202 37.9113 204.025 37.0106C203.849 36.1099 203.76 35.1473 203.76 34.123V23.5262C203.76 20.4354 202.788 18.2013 200.842 16.8237C198.897 15.4284 195.944 14.7308 191.983 14.7308C188.075 14.7308 184.998 15.4461 182.752 16.8767C180.524 18.2896 179.41 20.1705 179.41 22.5195V23.1818L187.659 23.2083V22.6519C187.659 21.7335 187.969 21.0271 188.588 20.5326C189.224 20.0204 190.135 19.7643 191.32 19.7643C192.522 19.7643 193.389 20.0557 193.919 20.6385C194.45 21.2214 194.715 22.0603 194.715 23.1553V24.7183H188.482C185.21 24.7183 182.593 25.4512 180.63 26.9171C178.685 28.3654 177.713 30.3081 177.713 32.7454ZM186.652 32.0831C186.652 31.0057 187.041 30.2463 187.819 29.8048C188.597 29.3632 189.79 29.1425 191.399 29.1425H194.715V31.0234C194.715 32.0831 194.229 33.0368 193.256 33.8845C192.301 34.7323 191.231 35.1562 190.047 35.1562C188.95 35.1562 188.11 34.9001 187.527 34.3879C186.943 33.8757 186.652 33.1074 186.652 32.0831Z" fill="#111111"/>
<path d="M208.243 39.7393H217.394V1.0874H208.243V39.7393Z" fill="#111111"/>
<path d="M209.505 50.6875C209.505 53.3788 210.669 54.4301 212.575 54.4301C214.481 54.4301 215.659 53.3788 215.659 50.6875C215.659 47.9822 214.481 46.9449 212.575 46.9449C210.669 46.9449 209.505 47.9822 209.505 50.6875ZM207.711 50.6875C207.711 47.1972 209.351 45.375 212.575 45.375C215.799 45.375 217.439 47.1972 217.439 50.6875C217.439 54.1638 215.799 56 212.575 56C209.351 56 207.711 54.1638 207.711 50.6875Z" fill="#DC7402"/>
<path d="M206.064 45.5703V55.8029H204.326V45.5703H206.064Z" fill="#DC7402"/>
<path d="M197.375 45.5703C197.866 45.5703 198.09 45.5703 198.525 45.6124C200.417 45.7946 202.688 46.6917 202.688 50.5324C202.688 54.5553 200.417 55.5365 198.637 55.7468C198.132 55.8029 197.866 55.8029 197.375 55.8029H193.773V45.5703H197.375ZM195.511 54.261H197.726C199.814 54.261 200.907 53.0695 200.907 50.5464C200.907 48.2336 199.87 47.1122 197.726 47.1122H195.511V54.261Z" fill="#DC7402"/>
<path d="M191.797 51.6818C191.797 52.0462 191.783 52.3406 191.741 52.8452C191.614 54.7095 190.549 55.9991 187.774 55.9991C184.984 55.9991 183.863 54.7095 183.737 52.8452C183.709 52.3406 183.709 52.0462 183.709 51.6818V45.5703H185.447V52.0182C185.447 53.5181 185.98 54.4292 187.774 54.4292C189.582 54.4292 190.087 53.49 190.087 52.0182V45.5703H191.797V51.6818Z" fill="#DC7402"/>
<path d="M182.478 45.5703V47.1122H179.212V55.8029H177.474V47.1122H174.222V45.5703H182.478Z" fill="#DC7402"/>
<path d="M169.364 45.375C171.677 45.375 173.148 46.4964 173.218 48.613H171.48C171.354 47.4916 170.485 46.9449 169.294 46.9449C168.256 46.9449 167.373 47.5056 167.373 48.2906C167.373 49.2017 168.13 49.5101 169.84 49.8325C172.195 50.267 173.499 51.2342 173.499 53.0284C173.499 55.187 171.452 56 169.476 56C167.135 56 165.495 54.9768 165.341 52.692H167.093C167.233 53.7853 168.074 54.4301 169.518 54.4301C170.695 54.4301 171.775 54.0236 171.775 53.1125C171.775 52.1873 171.032 51.7388 169.238 51.4024C166.953 50.9819 165.663 50.1128 165.663 48.3466C165.663 46.4824 167.345 45.375 169.364 45.375Z" fill="#DC7402"/>
</svg>
