<svg width="20" height="20" viewBox="0 0 20 20" fill="none" xmlns="http://www.w3.org/2000/svg">
<path d="M6.04183 1.6665C6.04183 1.32136 6.32168 1.0415 6.66683 1.0415H13.3335C13.6786 1.0415 13.9585 1.32136 13.9585 1.6665C13.9585 2.01165 13.6786 2.2915 13.3335 2.2915H6.66683C6.32168 2.2915 6.04183 2.01165 6.04183 1.6665Z" fill="white"/>
<path d="M3.54183 5.83317C3.54183 5.48802 3.82168 5.20817 4.16683 5.20817H15.8335C16.1786 5.20817 16.4585 5.48802 16.4585 5.83317C16.4585 6.17832 16.1786 6.45817 15.8335 6.45817H4.16683C3.82168 6.45817 3.54183 6.17832 3.54183 5.83317Z" fill="white"/>
<path fill-rule="evenodd" clip-rule="evenodd" d="M0.208496 11.6665C0.208496 10.4009 1.23461 9.37484 2.50016 9.37484H17.5002C18.7657 9.37484 19.7918 10.4009 19.7918 11.6665V16.6665C19.7918 17.9321 18.7657 18.9582 17.5002 18.9582H2.50016C1.23461 18.9582 0.208496 17.9321 0.208496 16.6665V11.6665ZM2.91683 10.6248C2.11126 10.6248 1.4585 11.2776 1.4585 12.0832V16.2498C1.4585 17.0554 2.11126 17.7082 2.91683 17.7082H17.0835C17.8891 17.7082 18.5418 17.0554 18.5418 16.2498V12.0832C18.5418 11.2776 17.8891 10.6248 17.0835 10.6248H2.91683Z" fill="white"/>
</svg>
